<?xml version="1.0"?>
<svg xmlns="http://www.w3.org/2000/svg" viewBox="0 0 16 16">
    <path style="line-height:normal;text-indent:0;text-align:start;text-decoration-line:none;text-decoration-style:solid;text-decoration-color:#000;text-transform:none;block-progression:tb;isolation:auto;mix-blend-mode:normal" d="M 2.5 1 C 1.6774686 1 1 1.6774686 1 2.5 L 1 5 L 1 6 L 1 9 L 1 10 L 1 12.5 C 1 13.322531 1.6774686 14 2.5 14 L 12.5 14 C 13.322531 14 14 13.322531 14 12.5 L 14 6 L 14 5 L 14 2.5 C 14 1.6774686 13.322531 1 12.5 1 L 2.5 1 z M 2.5 2 L 5 2 L 5 5 L 2 5 L 2 2.5 C 2 2.2185314 2.2185314 2 2.5 2 z M 6 2 L 9 2 L 9 5 L 6 5 L 6 2 z M 10 2 L 12.5 2 C 12.781469 2 13 2.2185314 13 2.5 L 13 5 L 10 5 L 10 2 z M 2 6 L 5 6 L 5 9 L 2 9 L 2 6 z M 6 6 L 9 6 L 9 9 L 6 9 L 6 6 z M 10 6 L 13 6 L 13 9 L 10 9 L 10 6 z M 2 10 L 5 10 L 5 13 L 2.5 13 C 2.2185314 13 2 12.781469 2 12.5 L 2 10 z M 6 10 L 9 10 L 9 13 L 6 13 L 6 10 z M 10 10 L 13 10 L 13 12.5 C 13 12.781469 12.781469 13 12.5 13 L 10 13 L 10 10 z" font-weight="400" font-family="sans-serif" white-space="normal" overflow="visible"/>
</svg>
