<?xml version="1.0"?>
<svg xmlns="http://www.w3.org/2000/svg" width="50" height="50" viewBox="0 0 50 50">
    <path style="text-indent:0;text-align:start;line-height:normal;text-transform:none;block-progression:tb;-inkscape-font-specification:Bitstream Vera Sans" d="M 3 7 C 2.448 7 2 7.448 2 8 L 2 12 C 2 12.552 2.448 13 3 13 L 7 13 C 7.552 13 8 12.552 8 12 L 8 8 C 8 7.448 7.552 7 7 7 L 3 7 z M 11.8125 8 A 2.0021961 2.0021961 0 1 0 12 12 L 46 12 A 2.0002 2.0002 0 1 0 46 8 L 12 8 A 2.0002 2.0002 0 0 0 11.8125 8 z M 3 17 C 2.448 17 2 17.448 2 18 L 2 22 C 2 22.552 2.448 23 3 23 L 7 23 C 7.552 23 8 22.552 8 22 L 8 18 C 8 17.448 7.552 17 7 17 L 3 17 z M 11.8125 18 A 2.0021961 2.0021961 0 1 0 12 22 L 46 22 A 2.0002 2.0002 0 1 0 46 18 L 12 18 A 2.0002 2.0002 0 0 0 11.8125 18 z M 3 27 C 2.448 27 2 27.447 2 28 L 2 32 C 2 32.553 2.448 33 3 33 L 7 33 C 7.552 33 8 32.553 8 32 L 8 28 C 8 27.447 7.552 27 7 27 L 3 27 z M 11.8125 28 A 2.0021961 2.0021961 0 1 0 12 32 L 46 32 A 2.0002 2.0002 0 1 0 46 28 L 12 28 A 2.0002 2.0002 0 0 0 11.8125 28 z M 3 37 C 2.448 37 2 37.447 2 38 L 2 42 C 2 42.553 2.448 43 3 43 L 7 43 C 7.552 43 8 42.553 8 42 L 8 38 C 8 37.447 7.552 37 7 37 L 3 37 z M 11.8125 38 A 2.0021961 2.0021961 0 1 0 12 42 L 46 42 A 2.0002 2.0002 0 1 0 46 38 L 12 38 A 2.0002 2.0002 0 0 0 11.8125 38 z" overflow="visible" enable-background="accumulate" font-family="Bitstream Vera Sans"/>
</svg>
